<?xml version="1.0" encoding="UTF-8"?>
<svg version="1.1" viewBox="0 0 123 29" xmlns="http://www.w3.org/2000/svg" xmlns:xlink="http://www.w3.org/1999/xlink">
<title>Group 34</title>
<desc>Created with Sketch.</desc>
<defs>
<polygon id="e" points="0 0.064025 6.3161 0.064025 6.3161 15.189 0 15.189"/>
<polygon id="d" points="0.14456 0.17363 6.4606 0.17363 6.4606 15.299 0.14456 15.299"/>
<polygon id="c" points="0.051635 0.072952 16.139 0.072952 16.139 16.105 0.051635 16.105"/>
<polygon id="b" points="0 28.795 122.83 28.795 122.83 0 0 0"/>
</defs>
<g fill="none" fill-rule="evenodd">
<g transform="translate(-150 -36)">
<g transform="translate(150 25)">
<g transform="translate(0 11)">
<path d="m84.608 1.234e-4c-0.53843 0-1.0044 0.1923-1.3852 0.57177-0.38056 0.37926-0.57352 0.84367-0.57352 1.3803 0 0.53701 0.19296 1.0012 0.57352 1.3803 0.38014 0.37926 0.84614 0.57157 1.3852 0.57157 0.53843 0 1.0044-0.1923 1.385-0.57157 0.38076-0.37967 0.57372-0.84367 0.57372-1.3803 0-0.53619-0.19296-1.0006-0.57372-1.3805-0.38097-0.37926-0.84717-0.57157-1.385-0.57157" fill="#353EF4"/>
<path d="m9.9174 12.007c-1.3646 2.4533-0.47508 5.5446 1.9866 6.9043 2.4617 1.3601 5.5635 0.47367 6.928-1.9798 1.3646-2.4531 0.47508-5.5446-1.9866-6.9043-2.4617-1.3599-5.5635-0.47346-6.928 1.9798" fill="#353EF4"/>
<path d="m7.7471 24.437c-0.29388 0.17585-0.57847 0.36178-0.85398 0.55573-0.18821 0.13287-0.21752 0.40148-0.060468 0.56972 0.75472 0.80686 1.5722 1.5855 2.4439 2.328 0.90104 0.76737 2.1164 1.0709 3.2733 0.81467 1.2323-0.27231 2.4272-0.61435 3.5695-1.0218 1.6991-0.60612 3.3297-1.3739 4.8465-2.2822 0.2784-0.1668 0.55433-0.33916 0.82757-0.51686 0.15726-0.10243 0.15086-0.33463-0.0099061-0.4313-4.1742-2.509-9.5672-2.6925-14.036-0.016043" fill="#353EF4"/>
<g transform="translate(0 .000206)">
<g transform="translate(0 6.7872)">
<mask id="h" fill="white">
<use xlink:href="#e"/>
</mask>
<path d="m4.3723 1.0765c-0.17666-0.29309-0.36281-0.57671-0.55783-0.85128-0.13291-0.18737-0.40264-0.21657-0.57125-0.060262-0.80961 0.75235-1.5912 1.5672-2.3362 2.4358-0.77019 0.89777-1.0746 2.109-0.81766 3.2622 0.27365 1.2281 0.61665 2.4189 1.0255 3.5573 0.60798 1.6935 1.3786 3.3183 2.2899 4.83 0.16716 0.27725 0.34031 0.55223 0.51883 0.82496 0.10257 0.15652 0.33557 0.15014 0.43256-0.010078 2.5176-4.1602 2.7015-9.5346 0.016097-13.989" fill="#9A9FFA" mask="url(#h)"/>
</g>
<path d="m20.892 4.5002c0.29388-0.17606 0.57868-0.36157 0.85419-0.55573 0.18801-0.13266 0.21752-0.40148 0.060468-0.56951-0.75472-0.80706-1.5724-1.5857-2.4441-2.3282-0.90083-0.76757-2.1162-1.0709-3.2733-0.81488-1.2323 0.27272-2.4272 0.61455-3.5695 1.022-1.6991 0.60612-3.3297 1.3739-4.8463 2.2822-0.2784 0.1666-0.55433 0.33916-0.82777 0.51706-0.15726 0.10243-0.15086 0.33443 0.009906 0.43109 4.1744 2.509 9.5672 2.6923 14.036 0.016043" fill="#9A9FFA"/>
<g transform="translate(22.289 6.7872)">
<mask id="g" fill="white">
<use xlink:href="#d"/>
</mask>
<path d="m2.0883 14.286c0.17666 0.29288 0.36281 0.5765 0.55783 0.85108 0.13291 0.18757 0.40264 0.21657 0.57125 0.060262 0.80961-0.75235 1.5912-1.567 2.3362-2.4356 0.77019-0.89797 1.0746-2.1092 0.81766-3.2622-0.27365-1.2281-0.61665-2.4189-1.0255-3.5573-0.60798-1.6933-1.3786-3.3183-2.2899-4.83-0.16716-0.27745-0.34031-0.55244-0.51883-0.82496-0.10257-0.15652-0.33557-0.15014-0.43256 0.010078-2.5176 4.16-2.7015 9.5346-0.016097 13.989" fill="#9A9FFA" mask="url(#g)"/>
</g>
</g>
<path d="m62.941 6.4491c-2.252 0-3.9418 0.90373-4.9155 2.6201v-2.1974h-2.5795v15.187h2.5795v-7.8954c0-1.596 0.40408-2.8877 1.2013-3.8393 0.79228-0.94569 1.9003-1.4251 3.2933-1.4251 1.1735 0 2.1143 0.38399 2.7964 1.1413 0.68517 0.76079 1.0323 1.9245 1.0323 3.459v8.5595h2.5795v-9.0422c0-2.1717-0.52977-3.8268-1.5746-4.9191-1.017-1.0629-2.584-1.6485-4.4127-1.6485" fill="#353EF4"/>
<g transform="translate(106.7 6.3761)">
<mask id="f" fill="white">
<use xlink:href="#c"/>
</mask>
<path d="m13.511 8.0893c0 3.0808-2.4297 5.5875-5.4161 5.5875-2.9863 0-5.4159-2.5068-5.4159-5.5875 0-3.0808 2.4297-5.5873 5.4159-5.5873 2.9865 0 5.4161 2.5065 5.4161 5.5873m-5.4161-8.0163c-4.435 0-8.0435 3.5962-8.0435 8.0163 0 4.4201 3.6085 8.0161 8.0435 8.0161 4.4352 0 8.0435-3.596 8.0435-8.0161 0-4.4201-3.6083-8.0163-8.0435-8.0163" fill="#353EF4" mask="url(#f)"/>
</g>
<path d="m50.363 14.465c0 3.0808-2.4297 5.5875-5.4161 5.5875-2.9863 0-5.4157-2.5068-5.4157-5.5875s2.4295-5.5873 5.4157-5.5873c2.9865 0 5.4161 2.5065 5.4161 5.5873m-5.4161-8.0163c-4.435 0-8.0433 3.5962-8.0433 8.0163 0 4.4201 3.6083 8.0161 8.0433 8.0161 4.4352 0 8.0435-3.596 8.0435-8.0161 0-4.4201-3.6083-8.0163-8.0435-8.0163" fill="#353EF4"/>
<path d="m101.77 14.465c0 3.0808-2.4295 5.5875-5.4159 5.5875s-5.4161-2.5068-5.4161-5.5875 2.4297-5.5873 5.4161-5.5873 5.4159 2.5065 5.4159 5.5873zm0.081105-5.4682c-1.4628-1.6232-3.5076-2.5481-5.6547-2.5481-4.2668 0-7.7379 3.5962-7.7379 8.0163 0 4.4201 3.471 8.0161 7.7379 8.0161 2.1473 0 4.1921-0.92491 5.6547-2.5477v2.125h2.5797v-21.344h-2.5797v8.2825z" fill="#353EF4"/>
<mask id="a" fill="white">
<use xlink:href="#b"/>
</mask>
<polygon points="83.318 22.059 85.897 22.059 85.897 6.8718 83.318 6.8718" fill="#353EF4" mask="url(#a)"/>
<path d="m75.984 6.8719v-3.0035c0-0.74433 0.60571-1.3476 1.3526-1.3476h3.0073v-2.3426h-3.2876c-2.0169 0-3.6518 1.6293-3.6518 3.6392v3.0545h-2.8529v2.3801h2.8523v12.807h2.5801v-12.807h4.3599v-2.3801h-4.3599z" fill="#353EF4" mask="url(#a)"/>
</g>
</g>
</g>
</g>
</svg>
